<?xml version="1.0" encoding="UTF-8"?>
<svg id="Layer_1" data-name="Layer 1" xmlns="http://www.w3.org/2000/svg" xmlns:xlink="http://www.w3.org/1999/xlink" viewBox="0 0 100 100">
  <defs>
    <style>
      .cls-1 {
        fill: url(#linear-gradient-2);
      }

      .cls-2 {
        fill: url(#linear-gradient-17);
      }

      .cls-3 {
        fill: url(#linear-gradient-15);
      }

      .cls-4 {
        fill: url(#linear-gradient-18);
      }

      .cls-5 {
        fill: url(#linear-gradient-28);
      }

      .cls-6 {
        fill: url(#linear-gradient-14);
      }

      .cls-7 {
        fill: url(#linear-gradient-36);
      }

      .cls-8 {
        fill: url(#linear-gradient-20);
      }

      .cls-9 {
        fill: url(#linear-gradient-6);
      }

      .cls-10 {
        fill: url(#linear-gradient-35);
      }

      .cls-11 {
        fill: url(#linear-gradient-32);
      }

      .cls-12 {
        fill: url(#linear-gradient-11);
      }

      .cls-13 {
        fill: url(#linear-gradient-10);
      }

      .cls-14 {
        fill: url(#linear-gradient-16);
      }

      .cls-15 {
        fill: url(#linear-gradient-31);
      }

      .cls-16 {
        fill: url(#linear-gradient-21);
      }

      .cls-17 {
        fill: url(#linear-gradient-25);
      }

      .cls-18 {
        fill: url(#linear-gradient-5);
      }

      .cls-19 {
        fill: url(#linear-gradient-34);
      }

      .cls-20 {
        fill: url(#linear-gradient-7);
      }

      .cls-21 {
        fill: url(#linear-gradient-24);
      }

      .cls-22 {
        fill: url(#linear-gradient-9);
      }

      .cls-23 {
        fill: url(#linear-gradient-22);
      }

      .cls-24 {
        fill: url(#linear-gradient-3);
      }

      .cls-25 {
        fill: url(#linear-gradient);
      }

      .cls-26 {
        fill: url(#linear-gradient-27);
      }

      .cls-27 {
        fill: url(#linear-gradient-33);
      }

      .cls-28 {
        fill: url(#linear-gradient-29);
      }

      .cls-29 {
        fill: url(#linear-gradient-30);
      }

      .cls-30 {
        fill: url(#linear-gradient-23);
      }

      .cls-31 {
        fill: url(#linear-gradient-19);
      }

      .cls-32 {
        fill: url(#linear-gradient-4);
      }

      .cls-33 {
        fill: url(#linear-gradient-8);
      }

      .cls-34 {
        fill: url(#linear-gradient-12);
      }

      .cls-35 {
        fill: url(#linear-gradient-13);
      }

      .cls-36 {
        fill: url(#linear-gradient-26);
      }
    </style>
    <linearGradient id="linear-gradient" x1="3.51" y1="54.03" x2="43.45" y2="54.03" gradientUnits="userSpaceOnUse">
      <stop offset="0" stop-color="#bd8a1c"/>
      <stop offset=".04" stop-color="#bf8e21"/>
      <stop offset=".1" stop-color="#c79a31"/>
      <stop offset=".16" stop-color="#d4ad4b"/>
      <stop offset=".23" stop-color="#e6c96f"/>
      <stop offset=".3" stop-color="#fdec9d"/>
      <stop offset=".3" stop-color="#ffefa1"/>
      <stop offset=".38" stop-color="#fded9e"/>
      <stop offset=".42" stop-color="#f9e696"/>
      <stop offset=".46" stop-color="#f2db87"/>
      <stop offset=".5" stop-color="#e8cc73"/>
      <stop offset=".53" stop-color="#dbb859"/>
      <stop offset=".55" stop-color="#cba039"/>
      <stop offset=".58" stop-color="#bd8a1c"/>
      <stop offset=".82" stop-color="#ffefa1"/>
      <stop offset=".87" stop-color="#fded9e"/>
      <stop offset=".9" stop-color="#f9e696"/>
      <stop offset=".93" stop-color="#f2db87"/>
      <stop offset=".95" stop-color="#e8cc73"/>
      <stop offset=".97" stop-color="#dbb859"/>
      <stop offset=".99" stop-color="#cba039"/>
      <stop offset="1" stop-color="#bd8a1c"/>
    </linearGradient>
    <linearGradient id="linear-gradient-2" x1="17.74" y1="45.04" x2="43.63" y2="45.04" xlink:href="#linear-gradient"/>
    <linearGradient id="linear-gradient-3" x1="20.79" y1="58.34" x2="44.12" y2="58.34" xlink:href="#linear-gradient"/>
    <linearGradient id="linear-gradient-4" x1="9.06" y1="34.03" x2="44.97" y2="34.03" xlink:href="#linear-gradient"/>
    <linearGradient id="linear-gradient-5" x1="16.29" y1="69.36" x2="45.47" y2="69.36" xlink:href="#linear-gradient"/>
    <linearGradient id="linear-gradient-6" x1="37.7" y1="67.12" x2="48.68" y2="67.12" xlink:href="#linear-gradient"/>
    <linearGradient id="linear-gradient-7" x1="29.07" y1="34.17" x2="47.08" y2="34.17" xlink:href="#linear-gradient"/>
    <linearGradient id="linear-gradient-8" x1="28.23" y1="24.18" x2="48.82" y2="24.18" xlink:href="#linear-gradient"/>
    <linearGradient id="linear-gradient-9" x1="47.73" y1="29.62" x2="52.66" y2="29.62" xlink:href="#linear-gradient"/>
    <linearGradient id="linear-gradient-10" x1="38.03" y1="75.84" x2="59.4" y2="75.84" xlink:href="#linear-gradient"/>
    <linearGradient id="linear-gradient-11" x1="51.61" y1="67.7" x2="60.03" y2="67.7" xlink:href="#linear-gradient"/>
    <linearGradient id="linear-gradient-12" x1="54.72" y1="34.5" x2="70.73" y2="34.5" xlink:href="#linear-gradient"/>
    <linearGradient id="linear-gradient-13" x1="51.31" y1="24.49" x2="71.96" y2="24.49" xlink:href="#linear-gradient"/>
    <linearGradient id="linear-gradient-14" x1="56.29" y1="58.36" x2="76.45" y2="58.36" xlink:href="#linear-gradient"/>
    <linearGradient id="linear-gradient-15" x1="56.71" y1="45.9" x2="83.04" y2="45.9" xlink:href="#linear-gradient"/>
    <linearGradient id="linear-gradient-16" x1="53.94" y1="70.47" x2="81.97" y2="70.47" xlink:href="#linear-gradient"/>
    <linearGradient id="linear-gradient-17" x1="55.31" y1="33.93" x2="91.15" y2="33.93" xlink:href="#linear-gradient"/>
    <linearGradient id="linear-gradient-18" x1="56.93" y1="54.34" x2="96.49" y2="54.34" xlink:href="#linear-gradient"/>
    <linearGradient id="linear-gradient-19" y1="50" x2="96.49" y2="50" xlink:href="#linear-gradient"/>
    <linearGradient id="linear-gradient-20" y1="50" x2="96.49" y2="50" xlink:href="#linear-gradient"/>
    <linearGradient id="linear-gradient-21" y1="50" x2="96.49" y2="50" xlink:href="#linear-gradient"/>
    <linearGradient id="linear-gradient-22" y1="50" x2="96.49" y2="50" xlink:href="#linear-gradient"/>
    <linearGradient id="linear-gradient-23" y1="50" x2="96.49" y2="50" xlink:href="#linear-gradient"/>
    <linearGradient id="linear-gradient-24" y1="50" x2="96.49" y2="50" xlink:href="#linear-gradient"/>
    <linearGradient id="linear-gradient-25" y1="50" x2="96.49" y2="50" xlink:href="#linear-gradient"/>
    <linearGradient id="linear-gradient-26" y1="50" x2="96.49" y2="50" xlink:href="#linear-gradient"/>
    <linearGradient id="linear-gradient-27" y1="50" x2="96.49" y2="50" xlink:href="#linear-gradient"/>
    <linearGradient id="linear-gradient-28" y1="50" x2="96.49" y2="50" xlink:href="#linear-gradient"/>
    <linearGradient id="linear-gradient-29" y1="50" x2="96.49" y2="50" xlink:href="#linear-gradient"/>
    <linearGradient id="linear-gradient-30" y1="50" x2="96.49" y2="50" xlink:href="#linear-gradient"/>
    <linearGradient id="linear-gradient-31" y1="50" x2="96.49" y2="50" xlink:href="#linear-gradient"/>
    <linearGradient id="linear-gradient-32" y1="50" x2="96.49" y2="50" xlink:href="#linear-gradient"/>
    <linearGradient id="linear-gradient-33" y1="50" x2="96.49" y2="50" xlink:href="#linear-gradient"/>
    <linearGradient id="linear-gradient-34" y1="50" x2="96.49" y2="50" xlink:href="#linear-gradient"/>
    <linearGradient id="linear-gradient-35" y1="50" x2="96.49" y2="50" xlink:href="#linear-gradient"/>
    <linearGradient id="linear-gradient-36" y1="50" x2="96.49" y2="50" xlink:href="#linear-gradient"/>
  </defs>
  <g>
    <path class="cls-25" d="M18.04,64.71c-4.82-.08-9.97-1.49-12.94-5.28-.7-.9-1.27-1.92-1.49-3.04-.22-1.12-.08-2.29,.25-3.4,.59-1.86,1.74-3.5,3.09-4.87,2.22-2.26,5.02-3.81,8.03-4.77,2.26,1.99,4.88,3.61,7.73,4.58,6.57,2.24,13.7,1.07,20.65,.55-.07,.4-.12,.84-.12,1.25,0,.59,.07,1.15,.2,1.69-6.62,1.4-13.51,2.36-19,6.24-2.59,1.86-4.75,4.3-6.39,7.04h-.02Z"/>
    <path class="cls-1" d="M43.63,47.47c-.05,.13-.1,.28-.13,.43-6.27,.1-12.63-.02-18.6-1.87-2.51-.79-4.97-1.92-7.16-3.38,2.39-.47,4.87-.6,7.29-.42,6.46,.45,12.61,2.76,18.6,5.23Z"/>
    <path class="cls-24" d="M27.09,58.89c4.98-3.33,10.75-5.23,16.54-6.86,.13,.37,.3,.74,.48,1.09-3.86,3.11-7.69,6.36-12.14,8.53-3.5,1.71-7.31,2.71-11.19,2.99,1.77-2.24,3.95-4.18,6.31-5.75Z"/>
    <path class="cls-32" d="M10.2,33.97c-.79-1.77-1.25-3.71-1.12-5.65,.08-1.15,.38-2.29,1-3.26,.6-.97,1.51-1.71,2.49-2.29,4.15-2.46,9.45-1.91,13.97-.23,.42,2.89,1.32,5.72,2.78,8.25,3.56,6.19,9.95,10.03,15.65,14.38-.47,.54-.85,1.14-1.14,1.81-6.54-3.06-12.94-7.02-20.14-7.31-2.81-.12-5.62,.33-8.28,1.25-2.22-1.92-4.06-4.23-5.22-6.94Z"/>
    <path class="cls-18" d="M35.72,72.44c-.57,2.73-.57,5.55-.13,8.31-.08,.07-.17,.13-.27,.2-3.85,2.89-8.8,4.92-13.46,3.73-1.1-.27-2.19-.74-3.04-1.49-.87-.75-1.47-1.77-1.87-2.84-.69-1.82-.77-3.81-.54-5.75,.3-2.58,1.2-5.02,2.51-7.24,.69,.02,1.35,.02,2.04-.03,4.85-.32,9.48-2.26,13.53-4.95,2.06-1.39,3.98-2.96,5.8-4.65,.9-.84,1.79-1.71,2.66-2.59,.27-.28,.99-.87,1.52-1.44,.28,.42,.62,.82,1,1.17-3.93,5.57-8.38,10.97-9.75,17.58Z"/>
    <path class="cls-9" d="M44.47,69.99c-1.67,3.38-3.98,6.44-6.76,8.98-.08-2.49,.18-5.02,.77-7.43,1.39-5.84,4.33-11.16,7.46-16.29,.8,.62,1.72,1.07,2.74,1.3-1.09,4.58-2.14,9.22-4.21,13.43Z"/>
    <path class="cls-20" d="M38.42,30.44c3.5,3.78,5.92,8.38,8.5,12.83,.05,.08,.1,.17,.17,.25-.64,.32-1.22,.74-1.74,1.24-4.92-4.15-9.77-8.51-13.13-13.98-1.35-2.22-2.46-4.67-3.14-7.19,3.51,1.67,6.72,4,9.35,6.86Z"/>
    <path class="cls-33" d="M28.41,20.42c-.37-2.81-.2-5.67,.67-8.4,.59-1.86,1.52-3.63,2.89-5,.82-.8,1.79-1.47,2.89-1.79,1.09-.32,2.26-.28,3.38-.08,4.63,.87,8.21,4.62,10.52,8.73-1.44,2.43-2.48,5.08-2.94,7.86-1.19,7.07,1.35,14.15,2.99,21.16-.48,.1-.95,.25-1.39,.45-.05-.8-.94-2.32-1.15-2.84-.48-1.14-1-2.27-1.54-3.4-1.09-2.22-2.31-4.4-3.73-6.42-2.78-3.98-6.41-7.49-10.8-9.53-.59-.27-1.19-.52-1.79-.74Z"/>
    <path class="cls-22" d="M48.07,23.58c.33-2.44,.99-4.88,1.96-7.16,1.61,3.63,2.53,7.56,2.63,11.54,.13,4.98-1,9.9-1.97,14.8-.15,0-.28-.02-.43-.02-.3,0-.59,.03-.89,.07-1.17-6.36-2.17-12.84-1.29-19.23Z"/>
    <path class="cls-13" d="M58.62,81.95c.25,.27,.52,.54,.79,.79-.95,4.53-3.18,9.06-7.23,11.27-.99,.55-2.09,.94-3.23,.99-1.15,.03-2.29-.3-3.31-.82-1.74-.87-3.18-2.27-4.31-3.85-1.74-2.41-2.79-5.2-3.29-8.13,.4-.32,.8-.64,1.19-.97,3.65-3.21,6.14-7.59,7.68-12.21,.79-2.34,1.34-4.77,1.74-7.21,.2-1.22,.37-2.46,.52-3.7,.03-.28,.15-.84,.25-1.44,.27,.03,.55,.05,.84,.05,.22,0,.42,0,.64-.03,.03,.54,.08,1.04,.08,1.29,.03,1.24,.08,2.49,.17,3.73,.17,2.46,.48,4.93,1.04,7.34,1.09,4.75,3.13,9.33,6.46,12.89Z"/>
    <path class="cls-12" d="M58.77,67.87c1.12,3.71,1.49,7.63,1.14,11.47-2.32-2.68-4.18-5.77-5.44-9.08-1.64-4.37-2.24-9.03-2.86-13.66,.57-.12,1.12-.28,1.62-.54,2.16,3.8,4.3,7.63,5.54,11.81Z"/>
    <path class="cls-34" d="M54.84,44.47c-.05-.03-.08-.07-.12-.1,2.11-4.31,4.18-8.71,7.21-12.46,2.42-2.99,5.44-5.5,8.8-7.38-1.09,3.55-2.79,6.91-5.08,9.83-3.03,3.91-6.97,6.97-10.8,10.1Z"/>
    <path class="cls-35" d="M52.58,15.56c-.32-.7-.67-1.4-1.07-2.07,1.54-2.54,3.53-4.77,6.04-6.37,1.62-1.05,3.46-1.84,5.4-2.02,1.14-.12,2.32,0,3.38,.45,1.05,.43,1.94,1.2,2.66,2.07,3.06,3.65,3.43,8.86,2.56,13.55-.69,.28-1.37,.6-2.02,.97-4.26,2.32-7.64,6.04-10.17,10.2-1.29,2.12-2.36,4.37-3.29,6.66-.47,1.14-.9,2.31-1.32,3.48-.1,.28-.37,.87-.6,1.47-.84-.55-1.79-.94-2.83-1.1,.28-.75,.5-1.74,.62-2.12,.38-1.19,.75-2.37,1.07-3.58,.65-2.39,1.17-4.82,1.44-7.28,.54-4.83,.1-9.85-1.86-14.3Z"/>
    <path class="cls-6" d="M56.29,53.24c.17-.28,.32-.59,.43-.9,5.72,2.21,11.39,4.68,16.12,8.55,1.29,1.07,2.51,2.24,3.6,3.51-1.56-.32-3.09-.75-4.58-1.32-5.75-2.19-10.77-5.94-15.57-9.83Z"/>
    <path class="cls-3" d="M57.23,49.71c0-.92-.18-1.79-.52-2.59,4.62-1.86,9.23-3.86,14.13-4.65,4.05-.65,8.21-.45,12.19,.54-2.02,1.49-4.28,2.69-6.61,3.6-6.09,2.32-12.69,2.81-19.2,3.11Z"/>
    <path class="cls-14" d="M78.49,67.1c2.07,3.14,3.4,6.71,3.48,10.47,.05,1.94-.23,3.91-1.09,5.67-.5,1.02-1.2,1.97-2.14,2.64-.94,.65-2.06,1.02-3.18,1.19-4.77,.72-9.48-1.77-13.05-5.02-.1-.08-.18-.18-.27-.27,.13-.69,.25-1.4,.32-2.11,.49-4.83-.67-9.73-2.68-14.17-1.02-2.26-2.26-4.42-3.63-6.47-.69-1.04-1.39-2.06-2.12-3.06-.05-.08-.12-.18-.2-.3,.8-.5,1.49-1.15,2.04-1.94,5.1,4.68,9.93,9.92,16.42,12.18,1.96,.69,4.01,1.07,6.09,1.19Z"/>
    <path class="cls-2" d="M65.83,36.96c3.48-3.4,6.34-7.53,7.64-12.21,.15-.59,.28-1.17,.4-1.76,4.26-1.77,9.25-2.49,13.35-.42,1.02,.52,1.97,1.2,2.64,2.12,.69,.94,1.05,2.06,1.2,3.19,.25,1.92-.08,3.9-.74,5.72-1.02,2.81-2.73,5.27-4.87,7.34-.79-.28-1.61-.54-2.42-.74-4.72-1.1-9.73-.59-14.38,.84-2.37,.72-4.67,1.67-6.89,2.76-1.12,.54-2.22,1.1-3.31,1.71-.35,.2-1.3,.59-1.99,1.02-.32-.59-.7-1.14-1.15-1.61,.67-.4,1.37-.97,1.71-1.17,1.04-.67,2.07-1.35,3.09-2.07,2.01-1.44,3.95-2.99,5.72-4.73Z"/>
    <path class="cls-4" d="M96.47,55.73c-.1,1.14-.59,2.22-1.22,3.18-1.1,1.61-2.68,2.84-4.38,3.76-3.38,1.84-7.23,2.46-11.09,2.17-1.15-1.82-2.54-3.5-4.18-4.92-5.18-4.48-12.09-6.07-18.66-8.16,.15-.48,.25-1,.28-1.52,7.28-.02,14.82,.9,21.51-1.89,2.58-1.07,4.92-2.66,6.94-4.58,4.38,1.52,8.58,4.31,10.25,8.61,.42,1.05,.67,2.21,.55,3.34Z"/>
  </g>
  <g>
    <path class="cls-31" d="M18.04,64.71c-4.82-.08-9.97-1.49-12.94-5.28-.7-.9-1.27-1.92-1.49-3.04-.22-1.12-.08-2.29,.25-3.4,.59-1.86,1.74-3.5,3.09-4.87,2.22-2.26,5.02-3.81,8.03-4.77,2.26,1.99,4.88,3.61,7.73,4.58,6.57,2.24,13.7,1.07,20.65,.55-.07,.4-.12,.84-.12,1.25,0,.59,.07,1.15,.2,1.69-6.62,1.4-13.51,2.36-19,6.24-2.59,1.86-4.75,4.3-6.39,7.04h-.02Z"/>
    <path class="cls-8" d="M43.63,47.47c-.05,.13-.1,.28-.13,.43-6.27,.1-12.63-.02-18.6-1.87-2.51-.79-4.97-1.92-7.16-3.38,2.39-.47,4.87-.6,7.29-.42,6.46,.45,12.61,2.76,18.6,5.23Z"/>
    <path class="cls-16" d="M27.09,58.89c4.98-3.33,10.75-5.23,16.54-6.86,.13,.37,.3,.74,.48,1.09-3.86,3.11-7.69,6.36-12.14,8.53-3.5,1.71-7.31,2.71-11.19,2.99,1.77-2.24,3.95-4.18,6.31-5.75Z"/>
    <path class="cls-23" d="M10.2,33.97c-.79-1.77-1.25-3.71-1.12-5.65,.08-1.15,.38-2.29,1-3.26,.6-.97,1.51-1.71,2.49-2.29,4.15-2.46,9.45-1.91,13.97-.23,.42,2.89,1.32,5.72,2.78,8.25,3.56,6.19,9.95,10.03,15.65,14.38-.47,.54-.85,1.14-1.14,1.81-6.54-3.06-12.94-7.02-20.14-7.31-2.81-.12-5.62,.33-8.28,1.25-2.22-1.92-4.06-4.23-5.22-6.94Z"/>
    <path class="cls-30" d="M35.72,72.44c-.57,2.73-.57,5.55-.13,8.31-.08,.07-.17,.13-.27,.2-3.85,2.89-8.8,4.92-13.46,3.73-1.1-.27-2.19-.74-3.04-1.49-.87-.75-1.47-1.77-1.87-2.84-.69-1.82-.77-3.81-.54-5.75,.3-2.58,1.2-5.02,2.51-7.24,.69,.02,1.35,.02,2.04-.03,4.85-.32,9.48-2.26,13.53-4.95,2.06-1.39,3.98-2.96,5.8-4.65,.9-.84,1.79-1.71,2.66-2.59,.27-.28,.99-.87,1.52-1.44,.28,.42,.62,.82,1,1.17-3.93,5.57-8.38,10.97-9.75,17.58Z"/>
    <path class="cls-21" d="M44.47,69.99c-1.67,3.38-3.98,6.44-6.76,8.98-.08-2.49,.18-5.02,.77-7.43,1.39-5.84,4.33-11.16,7.46-16.29,.8,.62,1.72,1.07,2.74,1.3-1.09,4.58-2.14,9.22-4.21,13.43Z"/>
    <path class="cls-17" d="M38.42,30.44c3.5,3.78,5.92,8.38,8.5,12.83,.05,.08,.1,.17,.17,.25-.64,.32-1.22,.74-1.74,1.24-4.92-4.15-9.77-8.51-13.13-13.98-1.35-2.22-2.46-4.67-3.14-7.19,3.51,1.67,6.72,4,9.35,6.86Z"/>
    <path class="cls-36" d="M28.41,20.42c-.37-2.81-.2-5.67,.67-8.4,.59-1.86,1.52-3.63,2.89-5,.82-.8,1.79-1.47,2.89-1.79,1.09-.32,2.26-.28,3.38-.08,4.63,.87,8.21,4.62,10.52,8.73-1.44,2.43-2.48,5.08-2.94,7.86-1.19,7.07,1.35,14.15,2.99,21.16-.48,.1-.95,.25-1.39,.45-.05-.8-.94-2.32-1.15-2.84-.48-1.14-1-2.27-1.54-3.4-1.09-2.22-2.31-4.4-3.73-6.42-2.78-3.98-6.41-7.49-10.8-9.53-.59-.27-1.19-.52-1.79-.74Z"/>
    <path class="cls-26" d="M48.07,23.58c.33-2.44,.99-4.88,1.96-7.16,1.61,3.63,2.53,7.56,2.63,11.54,.13,4.98-1,9.9-1.97,14.8-.15,0-.28-.02-.43-.02-.3,0-.59,.03-.89,.07-1.17-6.36-2.17-12.84-1.29-19.23Z"/>
    <path class="cls-5" d="M58.62,81.95c.25,.27,.52,.54,.79,.79-.95,4.53-3.18,9.06-7.23,11.27-.99,.55-2.09,.94-3.23,.99-1.15,.03-2.29-.3-3.31-.82-1.74-.87-3.18-2.27-4.31-3.85-1.74-2.41-2.79-5.2-3.29-8.13,.4-.32,.8-.64,1.19-.97,3.65-3.21,6.14-7.59,7.68-12.21,.79-2.34,1.34-4.77,1.74-7.21,.2-1.22,.37-2.46,.52-3.7,.03-.28,.15-.84,.25-1.44,.27,.03,.55,.05,.84,.05,.22,0,.42,0,.64-.03,.03,.54,.08,1.04,.08,1.29,.03,1.24,.08,2.49,.17,3.73,.17,2.46,.48,4.93,1.04,7.34,1.09,4.75,3.13,9.33,6.46,12.89Z"/>
    <path class="cls-28" d="M58.77,67.87c1.12,3.71,1.49,7.63,1.14,11.47-2.32-2.68-4.18-5.77-5.44-9.08-1.64-4.37-2.24-9.03-2.86-13.66,.57-.12,1.12-.28,1.62-.54,2.16,3.8,4.3,7.63,5.54,11.81Z"/>
    <path class="cls-29" d="M54.84,44.47c-.05-.03-.08-.07-.12-.1,2.11-4.31,4.18-8.71,7.21-12.46,2.42-2.99,5.44-5.5,8.8-7.38-1.09,3.55-2.79,6.91-5.08,9.83-3.03,3.91-6.97,6.97-10.8,10.1Z"/>
    <path class="cls-15" d="M52.58,15.56c-.32-.7-.67-1.4-1.07-2.07,1.54-2.54,3.53-4.77,6.04-6.37,1.62-1.05,3.46-1.84,5.4-2.02,1.14-.12,2.32,0,3.38,.45,1.05,.43,1.94,1.2,2.66,2.07,3.06,3.65,3.43,8.86,2.56,13.55-.69,.28-1.37,.6-2.02,.97-4.26,2.32-7.64,6.04-10.17,10.2-1.29,2.12-2.36,4.37-3.29,6.66-.47,1.14-.9,2.31-1.32,3.48-.1,.28-.37,.87-.6,1.47-.84-.55-1.79-.94-2.83-1.1,.28-.75,.5-1.74,.62-2.12,.38-1.19,.75-2.37,1.07-3.58,.65-2.39,1.17-4.82,1.44-7.28,.54-4.83,.1-9.85-1.86-14.3Z"/>
    <path class="cls-11" d="M56.29,53.24c.17-.28,.32-.59,.43-.9,5.72,2.21,11.39,4.68,16.12,8.55,1.29,1.07,2.51,2.24,3.6,3.51-1.56-.32-3.09-.75-4.58-1.32-5.75-2.19-10.77-5.94-15.57-9.83Z"/>
    <path class="cls-27" d="M57.23,49.71c0-.92-.18-1.79-.52-2.59,4.62-1.86,9.23-3.86,14.13-4.65,4.05-.65,8.21-.45,12.19,.54-2.02,1.49-4.28,2.69-6.61,3.6-6.09,2.32-12.69,2.81-19.2,3.11Z"/>
    <path class="cls-19" d="M78.49,67.1c2.07,3.14,3.4,6.71,3.48,10.47,.05,1.94-.23,3.91-1.09,5.67-.5,1.02-1.2,1.97-2.14,2.64-.94,.65-2.06,1.02-3.18,1.19-4.77,.72-9.48-1.77-13.05-5.02-.1-.08-.18-.18-.27-.27,.13-.69,.25-1.4,.32-2.11,.49-4.83-.67-9.73-2.68-14.17-1.02-2.26-2.26-4.42-3.63-6.47-.69-1.04-1.39-2.06-2.12-3.06-.05-.08-.12-.18-.2-.3,.8-.5,1.49-1.15,2.04-1.94,5.1,4.68,9.93,9.92,16.42,12.18,1.96,.69,4.01,1.07,6.09,1.19Z"/>
    <path class="cls-10" d="M65.83,36.96c3.48-3.4,6.34-7.53,7.64-12.21,.15-.59,.28-1.17,.4-1.76,4.26-1.77,9.25-2.49,13.35-.42,1.02,.52,1.97,1.2,2.64,2.12,.69,.94,1.05,2.06,1.2,3.19,.25,1.92-.08,3.9-.74,5.72-1.02,2.81-2.73,5.27-4.87,7.34-.79-.28-1.61-.54-2.42-.74-4.72-1.1-9.73-.59-14.38,.84-2.37,.72-4.67,1.67-6.89,2.76-1.12,.54-2.22,1.1-3.31,1.71-.35,.2-1.3,.59-1.99,1.02-.32-.59-.7-1.14-1.15-1.61,.67-.4,1.37-.97,1.71-1.17,1.04-.67,2.07-1.35,3.09-2.07,2.01-1.44,3.95-2.99,5.72-4.73Z"/>
    <path class="cls-7" d="M96.47,55.73c-.1,1.14-.59,2.22-1.22,3.18-1.1,1.61-2.68,2.84-4.38,3.76-3.38,1.84-7.23,2.46-11.09,2.17-1.15-1.82-2.54-3.5-4.18-4.92-5.18-4.48-12.09-6.07-18.66-8.16,.15-.48,.25-1,.28-1.52,7.28-.02,14.82,.9,21.51-1.89,2.58-1.07,4.92-2.66,6.94-4.58,4.38,1.52,8.58,4.31,10.25,8.61,.42,1.05,.67,2.21,.55,3.34Z"/>
  </g>
</svg>